# xmcd CD database file
#
# Track frame offsets:
#        150
#        24130
#        61547
#        92326
#        109242
#        161138
#        179513
#        208820
#        251141
#        303266
#
# Disc length: 4684 seconds
#
# Revision: 0
# Processed by: cddbd v1.5.2PL0 Copyright (c) Steve Scherf et al.
# Submitted via: CUERipper 2.1.5
#
DISCID=7b124a0a
DTITLE=Robben Ford and The Blue Line - Above The Blue Fish
DYEAR=1991
DGENRE=
TTITLE0=The Brother
TTITLE1=Ain't Got Nothin' But The Blues
TTITLE2=You Cut Me To The Bone
TTITLE3=I live The Life I Love
TTITLE4=I've Been Down So Long
TTITLE5=Wild About You
TTITLE6=I'm A Real Man
TTITLE7=Talk To Your Daughter
TTITLE8=Help The Poor
TTITLE9=I Put A Spell On You
EXTD=
EXTT0=
EXTT1=
EXTT2=
EXTT3=
EXTT4=
EXTT5=
EXTT6=
EXTT7=
EXTT8=
EXTT9=
PLAYORDER=
